<?xml version="1.0" encoding="UTF-8"?>
<svg id="Calque_1" data-name="Calque 1" xmlns="http://www.w3.org/2000/svg" viewBox="0 0 1000 1000">
  <defs>
    <style>
      .cls-1 {
        fill: #ffcfe5;
      }

      .cls-2 {
        fill: #ff3600;
      }
    </style>
  </defs>
  <g>
    <path class="cls-1" d="m328.93,518.22h-129.65V166.4h131.21c113.96,0,189.76,70.05,189.76,176.17s-80.5,175.65-191.33,175.65Zm1.57-281.24h-54.89v212.76h53.32c65.87,0,112.92-41.3,112.92-107.17s-44.96-105.6-111.35-105.6Z"/>
    <path class="cls-1" d="m517.79,381.25c0-74.23,60.64-136.44,140.1-136.44s140.62,58.55,140.62,136.44v130.17h-70.57v-30.32c-18.3,23-46.53,37.12-82.07,37.12-75.28,0-128.08-61.69-128.08-136.96Zm206.49.52c0-36.59-28.23-66.91-66.39-66.91s-65.87,30.32-65.87,66.91,27.71,66.91,65.87,66.91,66.39-30.32,66.39-66.91Z"/>
    <path class="cls-1" d="m287.4,690.8v142.28h-87.84v-152.79c0-89.08,52.58-162.07,159.6-162.07s160.83,72.38,160.83,162.07v152.79h-87.84v-142.28c0-47.01-22.89-87.22-72.99-87.22s-71.76,40.21-71.76,87.22Z"/>
  </g>
  <path class="cls-2" d="m519.99,696.64c0-74.23,60.64-136.44,140.1-136.44s140.62,58.55,140.62,136.44v130.17h-70.57v-30.32c-18.3,23-46.53,37.12-82.07,37.12-75.28,0-128.08-61.69-128.08-136.96Zm206.49.52c0-36.59-28.23-66.91-66.39-66.91s-65.87,30.32-65.87,66.91,27.71,66.91,65.87,66.91,66.39-30.32,66.39-66.91Z"/>
</svg>