<?xml version="1.0" encoding="UTF-8"?>
<svg id="Calque_1" data-name="Calque 1" xmlns="http://www.w3.org/2000/svg" viewBox="0 0 1000 1000">
  <defs>
    <style>
      .cls-1 {
        fill: #ff3600;
      }

      .cls-2 {
        fill: #371667;
      }

      .cls-3 {
        fill: #3c146b;
      }
    </style>
  </defs>
  <g>
    <g>
      <path class="cls-3" d="m344.25,451.67h-122.58V119.02h124.06c107.75,0,179.42,66.23,179.42,166.57s-76.12,166.08-180.9,166.08Zm1.48-265.92h-51.9v201.17h50.42c62.28,0,106.76-39.05,106.76-101.33s-42.51-99.84-105.28-99.84Z"/>
      <path class="cls-3" d="m522.82,322.17c0-70.19,57.34-129.01,132.47-129.01s132.96,55.36,132.96,129.01v123.07h-66.73v-28.67c-17.3,21.75-43.99,35.09-77.6,35.09-71.17,0-121.1-58.32-121.1-129.5Zm195.24.49c0-34.6-26.69-63.27-62.77-63.27s-62.28,28.67-62.28,63.27,26.2,63.27,62.28,63.27,62.77-28.67,62.77-63.27Z"/>
      <path class="cls-3" d="m304.99,614.85v134.52h-83.05v-144.47c0-84.22,49.71-153.24,150.9-153.24s152.07,68.43,152.07,153.24v144.47h-83.05v-134.52c0-44.45-21.64-82.47-69.02-82.47s-67.85,38.02-67.85,82.47Z"/>
    </g>
    <path class="cls-1" d="m524.9,620.37c0-70.19,57.34-129.01,132.47-129.01s132.96,55.36,132.96,129.01v123.07h-66.73v-28.67c-17.3,21.75-43.99,35.09-77.6,35.09-71.17,0-121.1-58.32-121.1-129.5Zm195.24.49c0-34.6-26.69-63.27-62.77-63.27s-62.28,28.67-62.28,63.27,26.2,63.27,62.28,63.27,62.77-28.67,62.77-63.27Z"/>
  </g>
  <g>
    <path class="cls-2" d="m240.4,823.87h-17.95l6.81-38.54h17.35c7.85,0,11.86,3.9,10.76,9.99-.82,4.67-4.12,7.69-8.07,8.78,4.28.93,6.53,4.89,5.76,9.28-1.1,6.37-6.53,10.48-14.66,10.48Zm1.1-16.14h-6.81l-1.54,8.67h6.92c3.18,0,5.16-1.48,5.65-4.28.55-2.74-1.1-4.39-4.23-4.39Zm1.98-14.99h-6.15l-1.43,8.23h6.09c3.13,0,5.11-1.43,5.54-4.06.44-2.69-.99-4.17-4.06-4.17Z"/>
    <path class="cls-2" d="m272.62,824.31c-8.01,0-13.45-5.11-13.45-12.84,0-10.59,8.07-18.66,18.94-18.66,8.01,0,13.56,5.16,13.56,12.9,0,10.7-8.29,18.61-19.05,18.61Zm1.32-8.07c4.83,0,8.01-4.89,8.01-9.66,0-3.84-2.36-5.71-5.21-5.71-4.89,0-7.9,4.89-7.9,9.77,0,3.73,2.19,5.6,5.1,5.6Z"/>
    <path class="cls-2" d="m323.84,823.87h-9.39l.71-4.17c-2.31,2.64-5.87,4.5-9.99,4.5-7.14,0-11.03-4.89-9.61-13.06l3.18-17.89h9.33l-2.91,16.63c-.77,4.17,1.15,6.48,4.72,6.48s6.09-2.14,6.92-6.09l3.02-17.02h9.39l-5.38,30.63Z"/>
    <path class="cls-2" d="m347.72,792.8c4.5,0,7.47,2.03,8.62,4.78l.77-4.34h9.39l-5.38,30.57c-1.48,8.18-7.47,15.15-18.01,15.15-9.17,0-14.27-4.61-13.78-11.91h9.28c.22,2.31,2.25,3.79,5.49,3.79,3.57,0,6.7-1.87,7.63-7.03l.77-4.34c-2.2,2.69-5.82,4.83-10.32,4.83-7.52,0-12.41-6.15-10.71-15.81,1.7-9.66,8.73-15.7,16.25-15.7Zm1.32,8.18c-3.51,0-7.19,2.64-8.01,7.52-.88,4.89,1.81,7.63,5.33,7.63s7.19-2.69,8.07-7.58c.88-4.88-1.81-7.57-5.38-7.57Z"/>
    <path class="cls-2" d="m381.42,824.31c-9,0-14.44-6.04-12.68-15.76,1.7-9.72,9.11-15.75,18.23-15.75s14.27,5.93,12.62,15.21c-.16.88-.38,1.76-.66,2.69h-21.24c-.44,4.06,1.7,5.98,4.77,5.98,2.64,0,4.34-1.32,5.38-2.96h9.99c-2.58,5.98-8.78,10.59-16.41,10.59Zm-2.85-18.39h11.8c.55-3.68-1.7-5.6-4.89-5.6s-5.82,1.98-6.92,5.6Z"/>
    <path class="cls-2" d="m431.49,792.8c4.06,0,7.25,1.87,8.62,4.67l2.52-14.22h9.39l-7.19,40.62h-9.39l.77-4.39c-2.2,2.8-5.76,4.83-10.26,4.83-7.52,0-12.41-6.15-10.71-15.81,1.7-9.66,8.73-15.7,16.25-15.7Zm1.32,8.18c-3.51,0-7.19,2.64-8.01,7.52-.88,4.89,1.81,7.63,5.33,7.63s7.19-2.69,8.07-7.58c.88-4.88-1.81-7.57-5.38-7.57Z"/>
    <path class="cls-2" d="m468.76,792.8c4.56,0,7.41,2.09,8.62,4.78l.77-4.34h9.39l-5.43,30.63h-9.39l.82-4.34c-2.2,2.69-5.82,4.78-10.38,4.78-7.47,0-12.35-6.15-10.65-15.81,1.7-9.66,8.73-15.7,16.25-15.7Zm1.32,8.18c-3.51,0-7.19,2.64-8.01,7.52-.88,4.89,1.81,7.63,5.33,7.63s7.19-2.69,8.07-7.58c.88-4.88-1.81-7.57-5.38-7.57Z"/>
    <path class="cls-2" d="m513,807.24c.71-4.17-1.21-6.48-4.72-6.48s-6.31,2.31-7.03,6.48v-.27l-2.96,16.91h-9.39l5.38-30.63h9.39l-.71,4.12c2.31-2.64,5.93-4.45,10.04-4.45,7.14,0,11.03,4.83,9.55,13.06l-3.18,17.89h-9.33l2.96-16.63Z"/>
    <path class="cls-2" d="m538.64,824.31c-7.91,0-13.56-4.28-12.57-10.49h9.06c-.17,2.31,1.48,3.73,4.23,3.73,2.2,0,4.06-.88,4.06-2.52,0-4.39-15.15-2.8-15.15-12.79,0-5.43,5.05-9.44,12.74-9.44,8.07,0,12.9,4.5,12.41,10.43h-8.51c.16-2.2-1.37-3.62-4.12-3.62-2.09,0-3.62.93-3.62,2.47,0,4.5,15.21,3.29,15.21,12.73,0,6.04-5.87,9.5-13.72,9.5Z"/>
    <path class="cls-2" d="m574.76,801.03h-3.73l1.37-7.79h3.73l1.32-7.47h9.39l-1.32,7.47h6.15l-1.37,7.79h-6.15l-2.19,12.3c-.28,1.81.33,2.58,2.41,2.58h3.35l-1.43,7.96h-4.77c-6.37,0-10.32-2.69-8.95-10.65l2.19-12.19Z"/>
    <path class="cls-2" d="m608.63,792.8c4.56,0,7.41,2.09,8.62,4.78l.77-4.34h9.39l-5.43,30.63h-9.39l.82-4.34c-2.2,2.69-5.82,4.78-10.38,4.78-7.47,0-12.35-6.15-10.65-15.81,1.7-9.66,8.73-15.7,16.25-15.7Zm1.32,8.18c-3.51,0-7.19,2.64-8.01,7.52-.88,4.89,1.81,7.63,5.33,7.63s7.19-2.69,8.07-7.58c.88-4.88-1.81-7.57-5.38-7.57Z"/>
    <path class="cls-2" d="m653.97,793.24l2.8,21.85,10.54-21.85h10.05l-16.3,30.63h-11.64l-5.43-30.63h9.99Z"/>
    <path class="cls-2" d="m681.2,793.24h9.39l-5.38,30.63h-9.39l5.38-30.63Zm.6-8.23c.55-2.85,3.18-5.11,6.53-5.11s5.16,2.25,4.67,5.11c-.55,2.8-3.18,5.05-6.48,5.05s-5.21-2.25-4.72-5.05Z"/>
    <path class="cls-2" d="m699.2,783.25h9.39l-7.19,40.62h-9.39l7.19-40.62Z"/>
    <path class="cls-2" d="m715.4,783.25h9.39l-7.19,40.62h-9.39l7.19-40.62Z"/>
    <path class="cls-2" d="m737.96,824.31c-9,0-14.44-6.04-12.68-15.76,1.7-9.72,9.11-15.75,18.23-15.75s14.27,5.93,12.62,15.21c-.16.88-.38,1.76-.66,2.69h-21.24c-.44,4.06,1.7,5.98,4.77,5.98,2.64,0,4.34-1.32,5.38-2.96h9.99c-2.58,5.98-8.78,10.59-16.41,10.59Zm-2.85-18.39h11.8c.55-3.68-1.7-5.6-4.89-5.6s-5.82,1.98-6.92,5.6Z"/>
    <path class="cls-2" d="m778.25,824.31c-3.35,0-5.21-2.25-4.72-5.05.49-2.91,3.13-5.16,6.53-5.16s5.11,2.25,4.61,5.16c-.49,2.8-3.13,5.05-6.42,5.05Zm1.92-40.35h10.16l-5.76,26.3h-7.96l3.57-26.3Z"/>
  </g>
</svg>