<?xml version="1.0" encoding="UTF-8"?>
<svg id="Calque_1" data-name="Calque 1" xmlns="http://www.w3.org/2000/svg" viewBox="0 0 1000 1000">
  <defs>
    <style>
      .cls-1 {
        fill: #0083f8;
      }

      .cls-2 {
        fill: #ffcfe5;
      }

      .cls-3 {
        fill: #ff3800;
      }

      .cls-4 {
        fill: #ff66d1;
      }
    </style>
  </defs>
  <g>
    <path class="cls-2" d="m53.82,98.54H20.9V9.22h33.31c28.93,0,48.18,17.78,48.18,44.73s-20.44,44.6-48.58,44.6Zm.4-71.41h-13.94v54.02h13.54c16.72,0,28.67-10.49,28.67-27.21s-11.41-26.81-28.27-26.81Z"/>
    <path class="cls-2" d="m53.55,229.3H20.63s0-89.32,0-89.32h33.31c28.93,0,48.18,17.78,48.18,44.73,0,27.47-20.44,44.6-48.58,44.6Zm.4-71.41h-13.94s0,54.02,0,54.02h13.54c16.72,0,28.67-10.49,28.67-27.21,0-16.06-11.41-26.81-28.27-26.81Z"/>
    <path class="cls-4" d="m183.27,98.27h-32.92V8.95h33.31c28.93,0,48.18,17.78,48.18,44.73s-20.44,44.6-48.58,44.6Zm.4-71.41h-13.94v54.02h13.54c16.72,0,28.67-10.49,28.67-27.21s-11.41-26.81-28.27-26.81Z"/>
    <path class="cls-3" d="m183,229.3h-32.92v-89.32h33.31c28.93,0,48.18,17.78,48.18,44.73s-20.44,44.6-48.58,44.6Zm.4-71.41h-13.94v54.02h13.54c16.72,0,28.67-10.49,28.67-27.21s-11.41-26.81-28.27-26.81Z"/>
    <path class="cls-4" d="m405.44,172.99v-32.92h89.32v33.31c0,28.93-17.78,48.18-44.73,48.18s-44.6-20.44-44.6-48.58Zm71.41.4v-13.94h-54.02v13.54c0,16.72,10.49,28.67,27.21,28.67s26.81-11.41,26.81-28.27Z"/>
    <path class="cls-2" d="m312.9,98.8h-32.92s0-89.32,0-89.32h33.31c28.93,0,48.18,17.78,48.18,44.73,0,27.47-20.44,44.6-48.58,44.6Zm.4-71.41h-13.94s0,54.02,0,54.02h13.54c16.72,0,28.67-10.49,28.67-27.21,0-16.06-11.41-26.81-28.27-26.81Z"/>
    <path class="cls-4" d="m272.39,432.68v-32.92h89.32v33.31c0,28.93-17.78,48.18-44.73,48.18s-44.6-20.44-44.6-48.58Zm71.41.4v-13.94h-54.02v13.54c0,16.72,10.49,28.67,27.21,28.67s26.81-11.41,26.81-28.27Z"/>
    <path class="cls-2" d="m328.75,140.08h32.92s0,89.32,0,89.32h-33.31c-28.93,0-48.18-17.78-48.18-44.73,0-27.47,20.44-44.6,48.58-44.6Zm-.4,71.41h13.94s0-54.02,0-54.02h-13.54c-16.72,0-28.67,10.49-28.67,27.21,0,16.06,11.41,26.81,28.27,26.81Z"/>
    <path class="cls-2" d="m401.36,45.78V12.87s89.32,0,89.32,0v33.31c0,28.93-17.78,48.18-44.73,48.18-27.47,0-44.6-20.44-44.6-48.58Zm71.41.4v-13.94h-54.02v13.54c0,16.72,10.49,28.67,27.21,28.67,16.06,0,26.81-11.41,26.81-28.27Z"/>
    <path class="cls-1" d="m442.27,357.78h-32.92s0-89.32,0-89.32h33.31c28.93,0,48.18,17.78,48.18,44.73,0,27.47-20.44,44.6-48.58,44.6Zm.4-71.41h-13.94v54.02h13.54c16.72,0,28.67-10.49,28.67-27.21,0-16.06-11.41-26.81-28.27-26.81Z"/>
    <path class="cls-2" d="m232.75,452.26v32.92s-89.32,0-89.32,0v-33.31c0-28.93,17.78-48.18,44.73-48.18,27.47,0,44.6,20.44,44.6,48.58Zm-71.41-.4v13.94h54.02v-13.54c0-16.72-10.49-28.67-27.21-28.67-16.06,0-26.81,11.41-26.81,28.27Z"/>
    <path class="cls-1" d="m146.17,301.91v-32.92s89.32,0,89.32,0v33.31c0,28.93-17.78,48.18-44.73,48.18-27.47,0-44.6-20.44-44.6-48.58Zm71.41.4v-13.94h-54.02v13.54c0,16.72,10.49,28.67,27.21,28.67,16.06,0,26.81-11.41,26.81-28.27Z"/>
    <path class="cls-2" d="m312.64,359.25h-32.92s0-89.32,0-89.32h33.31c28.93,0,48.18,17.78,48.18,44.73,0,27.47-20.44,44.6-48.58,44.6Zm.4-71.41h-13.94v54.02h13.54c16.72,0,28.67-10.49,28.67-27.21,0-16.06-11.41-26.81-28.27-26.81Z"/>
    <path class="cls-2" d="m106.31,317.3v32.92s-89.32,0-89.32,0v-33.31c0-28.93,17.78-48.18,44.73-48.18,27.47,0,44.6,20.44,44.6,48.58Zm-71.41-.4v13.94h54.02v-13.54c0-16.72-10.49-28.67-27.21-28.67-16.06,0-26.81,11.41-26.81,28.27Z"/>
    <path class="cls-3" d="m66.95,395.85h32.92s0,89.32,0,89.32h-33.31c-28.93,0-48.18-17.78-48.18-44.73,0-27.47,20.44-44.6,48.58-44.6Zm-.4,71.41h13.94s0-54.02,0-54.02h-13.54c-16.72,0-28.67,10.49-28.67,27.21,0,16.06,11.41,26.81,28.27,26.81Z"/>
    <path class="cls-2" d="m490.42,448.08v32.92s-89.32,0-89.32,0v-33.31c0-28.93,17.78-48.18,44.73-48.18,27.47,0,44.6,20.44,44.6,48.58Zm-71.41-.4v13.94s54.02,0,54.02,0v-13.54c0-16.72-10.49-28.67-27.21-28.67s-26.81,11.41-26.81,28.27Z"/>
  </g>
  <g>
    <path class="cls-2" d="m455.88,905.51h32.92v89.32h-33.31c-28.93,0-48.18-17.78-48.18-44.73s20.44-44.6,48.58-44.6Zm-.4,71.41h13.94v-54.02h-13.54c-16.72,0-28.67,10.49-28.67,27.21s11.41,26.81,28.27,26.81Z"/>
    <path class="cls-2" d="m456.14,774.75h32.92s0,89.32,0,89.32h-33.31c-28.93,0-48.18-17.78-48.18-44.73,0-27.47,20.44-44.6,48.58-44.6Zm-.4,71.41h13.94s0-54.02,0-54.02h-13.54c-16.72,0-28.67,10.49-28.67,27.21,0,16.06,11.41,26.81,28.27,26.81Z"/>
    <path class="cls-4" d="m326.42,905.78h32.92v89.32h-33.31c-28.93,0-48.18-17.78-48.18-44.73s20.44-44.6,48.58-44.6Zm-.4,71.41h13.94v-54.02h-13.54c-16.72,0-28.67,10.49-28.67,27.21s11.41,26.81,28.27,26.81Z"/>
    <path class="cls-3" d="m326.69,774.75h32.92v89.32h-33.31c-28.93,0-48.18-17.78-48.18-44.73s20.44-44.6,48.58-44.6Zm-.4,71.41h13.94v-54.02h-13.54c-16.72,0-28.67,10.49-28.67,27.21s11.41,26.81,28.27,26.81Z"/>
    <path class="cls-4" d="m104.26,831.06v32.92H14.93v-33.31c0-28.93,17.78-48.18,44.73-48.18s44.6,20.44,44.6,48.58Zm-71.41-.4v13.94h54.02v-13.54c0-16.72-10.49-28.67-27.21-28.67s-26.81,11.41-26.81,28.27Z"/>
    <path class="cls-2" d="m196.79,905.25h32.92s0,89.32,0,89.32h-33.31c-28.93,0-48.18-17.78-48.18-44.73,0-27.47,20.44-44.6,48.58-44.6Zm-.4,71.41h13.94s0-54.02,0-54.02h-13.54c-16.72,0-28.67,10.49-28.67,27.21,0,16.06,11.41,26.81,28.27,26.81Z"/>
    <path class="cls-4" d="m237.3,571.36v32.92h-89.32v-33.31c0-28.93,17.78-48.18,44.73-48.18s44.6,20.44,44.6,48.58Zm-71.41-.4v13.94h54.02v-13.54c0-16.72-10.49-28.67-27.21-28.67s-26.81,11.41-26.81,28.27Z"/>
    <path class="cls-2" d="m180.95,863.97h-32.92s0-89.32,0-89.32h33.31c28.93,0,48.18,17.78,48.18,44.73,0,27.47-20.44,44.6-48.58,44.6Zm.4-71.41h-13.94s0,54.02,0,54.02h13.54c16.72,0,28.67-10.49,28.67-27.21,0-16.06-11.41-26.81-28.27-26.81Z"/>
    <path class="cls-2" d="m108.33,958.27v32.92s-89.32,0-89.32,0v-33.31c0-28.93,17.78-48.18,44.73-48.18,27.47,0,44.6,20.44,44.6,48.58Zm-71.41-.4v13.94h54.02v-13.54c0-16.72-10.49-28.67-27.21-28.67-16.06,0-26.81,11.41-26.81,28.27Z"/>
    <path class="cls-1" d="m67.43,646.27h32.92s0,89.32,0,89.32h-33.31c-28.93,0-48.18-17.78-48.18-44.73,0-27.47,20.44-44.6,48.58-44.6Zm-.4,71.41h13.94v-54.02h-13.54c-16.72,0-28.67,10.49-28.67,27.21,0,16.06,11.41,26.81,28.27,26.81Z"/>
    <path class="cls-2" d="m276.94,551.79v-32.92s89.32,0,89.32,0v33.31c0,28.93-17.78,48.18-44.73,48.18-27.47,0-44.6-20.44-44.6-48.58Zm71.41.4v-13.94h-54.02v13.54c0,16.72,10.49,28.67,27.21,28.67,16.06,0,26.81-11.41,26.81-28.27Z"/>
    <path class="cls-1" d="m363.52,702.14v32.92s-89.32,0-89.32,0v-33.31c0-28.93,17.78-48.18,44.73-48.18,27.47,0,44.6,20.44,44.6,48.58Zm-71.41-.4v13.94h54.02v-13.54c0-16.72-10.49-28.67-27.21-28.67-16.06,0-26.81,11.41-26.81,28.27Z"/>
    <path class="cls-2" d="m197.06,644.8h32.92s0,89.32,0,89.32h-33.31c-28.93,0-48.18-17.78-48.18-44.73,0-27.47,20.44-44.6,48.58-44.6Zm-.4,71.41h13.94v-54.02h-13.54c-16.72,0-28.67,10.49-28.67,27.21,0,16.06,11.41,26.81,28.27,26.81Z"/>
    <path class="cls-2" d="m403.39,686.75v-32.92s89.32,0,89.32,0v33.31c0,28.93-17.78,48.18-44.73,48.18-27.47,0-44.6-20.44-44.6-48.58Zm71.41.4v-13.94h-54.02v13.54c0,16.72,10.49,28.67,27.21,28.67,16.06,0,26.81-11.41,26.81-28.27Z"/>
    <path class="cls-3" d="m442.74,608.2h-32.92s0-89.32,0-89.32h33.31c28.93,0,48.18,17.78,48.18,44.73,0,27.47-20.44,44.6-48.58,44.6Zm.4-71.41h-13.94s0,54.02,0,54.02h13.54c16.72,0,28.67-10.49,28.67-27.21,0-16.06-11.41-26.81-28.27-26.81Z"/>
    <path class="cls-2" d="m19.27,555.97v-32.92s89.32,0,89.32,0v33.31c0,28.93-17.78,48.18-44.73,48.18-27.47,0-44.6-20.44-44.6-48.58Zm71.41.4v-13.94s-54.02,0-54.02,0v13.54c0,16.72,10.49,28.67,27.21,28.67,16.06,0,26.81-11.41,26.81-28.27Z"/>
  </g>
</svg>