<?xml version="1.0" encoding="UTF-8"?>
<svg id="Calque_1" data-name="Calque 1" xmlns="http://www.w3.org/2000/svg" viewBox="0 0 1000 1000">
  <defs>
    <style>
      .cls-1 {
        fill: #ffcfe5;
      }
    </style>
  </defs>
  <path class="cls-1" d="m221.96,391.3h-67.59v-145.1h65.32c29.55,0,47.12,14.67,47.12,37.62,0,17.57-10.54,28.94-24.6,33.07,16.95,3.51,27.91,18.39,27.91,34.93,0,23.98-17.57,39.48-48.16,39.48Zm-9.1-116.78h-23.15v30.38h23.15c11.57,0,17.98-5.16,17.98-15.09s-6.41-15.29-17.98-15.29Zm2.48,56.22h-25.63v32.04h26.04c11.78,0,18.6-5.38,18.6-15.71s-7.24-16.33-19.01-16.33Z"/>
  <path class="cls-1" d="m359.22,392.74c-41.13,0-74.61-30.8-74.61-74.41s33.48-74.2,74.61-74.2,74.2,30.59,74.2,74.2-33.07,74.41-74.2,74.41Zm0-32.24c23.15,0,38.24-16.74,38.24-42.17s-15.09-42.17-38.24-42.17-38.45,16.33-38.45,42.17,14.89,42.17,38.45,42.17Z"/>
  <path class="cls-1" d="m452.46,246.2h35.34v86.81c0,17.16,8.48,27.08,25.22,27.08s25.63-9.92,25.63-27.08v-86.81h35.34v86.6c0,40.09-28.11,59.94-61.59,59.94s-59.94-19.84-59.94-59.94v-86.6Z"/>
  <path class="cls-1" d="m734.2,292.08h-39.06c-5.38-9.72-15.3-14.88-28.53-14.88-22.73,0-37.82,16.12-37.82,41.34,0,26.87,15.29,42.58,40.72,42.58,17.57,0,29.77-9.3,35.14-25.63h-44.85v-26.04h76.89v32.86c-7.44,25.01-31.63,50.02-69.87,50.02-43.4,0-73.99-30.39-73.99-73.79s30.38-73.99,73.79-73.99c34.73,0,59.94,17.77,67.59,47.54Z"/>
  <path class="cls-1" d="m845.21,274.52h-53.53v29.35h47.33v27.28h-47.33v31.83h53.53v28.32h-88.88v-145.1h88.88v28.32Z"/>
  <path class="cls-1" d="m255.52,502.02c0,33.48-23.18,56.5-59.23,56.5h-42.34v-113h42.34c36.06,0,59.23,22.85,59.23,56.5Zm-61,32.68c20.76,0,32.99-11.91,32.99-32.68s-12.23-33-32.99-33h-13.04v65.68h13.04Z"/>
  <path class="cls-1" d="m341.33,538.57h-42.17l-6.76,19.96h-28.82l40.89-113h31.87l40.88,113h-29.13l-6.76-19.96Zm-21.08-62.62l-13.84,41.37h27.84l-14-41.37Z"/>
  <path class="cls-1" d="m490.72,445.53v113h-27.53l-46.04-69.7v69.7h-27.53v-113h27.53l46.04,70.02v-70.02h27.53Z"/>
  <path class="cls-1" d="m551.58,559.65c-24.3,0-43.3-12.07-44.1-34.93h29.3c.81,8.69,6.28,12.88,14,12.88s13.2-4.02,13.2-10.62c0-20.92-56.5-9.66-56.18-49.74,0-21.41,17.55-33.32,41.21-33.32s41.21,12.23,42.33,33.8h-29.78c-.48-7.24-5.63-11.59-13.04-11.75-6.6-.16-11.59,3.22-11.59,10.3,0,19.64,55.85,10.79,55.85,48.61,0,18.99-14.81,34.77-41.21,34.77Z"/>
  <path class="cls-1" d="m637.72,445.53h87.4v22.05h-29.94v90.95h-27.53v-90.95h-29.94v-22.05Z"/>
  <path class="cls-1" d="m809.32,538.57h-42.17l-6.76,19.96h-28.82l40.89-113h31.87l40.88,113h-29.13l-6.76-19.96Zm-21.08-62.62l-13.84,41.37h27.84l-14-41.37Z"/>
  <path class="cls-1" d="m280.18,618.74h42.53l-58.51,172.45h-50.29l-58.51-172.45h42.77l40.89,130.19,41.12-130.19Z"/>
  <path class="cls-1" d="m339.43,618.74h40.18v172.45h-40.18v-172.45Z"/>
  <path class="cls-1" d="m448.94,618.74v140.02h52.64v32.43h-92.82v-172.45h40.18Z"/>
  <path class="cls-1" d="m561.04,618.74v140.02h52.64v32.43h-92.82v-172.45h40.18Z"/>
  <path class="cls-1" d="m734,652.4h-60.86v34.88h53.81v32.42h-53.81v37.83h60.86v33.65h-101.04v-172.45h101.04v33.65Z"/>
  <path class="cls-1" d="m782.43,791.49c-13.92-3.42-20.88-15.5-17.89-27.67,3.11-12.64,14.87-20.12,28.79-16.7,13.69,3.36,20.64,15.44,17.53,28.09-2.99,12.16-14.75,19.65-28.44,16.28Zm21.41-180.67l42.22,10.38-32.64,113.15-33.09-8.13,23.51-115.39Z"/>
</svg>